HIERARCHY
ROOT Hips
{
  OFFSET 267.745 86.9975 -272.335
  CHANNELS 6 Xposition Yposition Zposition Zrotation Xrotation Yrotation
  JOINT LeftUpLeg
  {
    OFFSET 8.64259 1.95398 -2.38835
    CHANNELS 3 Zrotation Xrotation Yrotation
    JOINT LeftLeg
    {
      OFFSET 43.7702 0 0
      CHANNELS 3 Zrotation Xrotation Yrotation
      JOINT LeftFoot
      {
        OFFSET 40.6238 0 0
        CHANNELS 3 Zrotation Xrotation Yrotation
        JOINT LeftToeBase
        {
          OFFSET 12.7242 0 0
          CHANNELS 3 Zrotation Xrotation Yrotation
          End Site
          {
            OFFSET 0 0 0
          }
        }
      }
    }
  }
  JOINT RightUpLeg
  {
    OFFSET -8.2249 1.95398 -2.59336
    CHANNELS 3 Zrotation Xrotation Yrotation
    JOINT RightLeg
    {
      OFFSET 43.5653 0 0
      CHANNELS 3 Zrotation Xrotation Yrotation
      JOINT RightFoot
      {
        OFFSET 40.6238 0 0
        CHANNELS 3 Zrotation Xrotation Yrotation
        JOINT RightToeBase
        {
          OFFSET 12.7242 0 0
          CHANNELS 3 Zrotation Xrotation Yrotation
          End Site
          {
            OFFSET 0 0 0
          }
        }
      }
    }
  }
  JOINT Spine
  {
    OFFSET 0.165834 0.87714 6.61349
    CHANNELS 3 Zrotation Xrotation Yrotation
    JOINT Spine1
    {
      OFFSET 7.38963 1.71661e-005 0
      CHANNELS 3 Zrotation Xrotation Yrotation
      JOINT Spine2
      {
        OFFSET 11.9445 1.14441e-005 0
        CHANNELS 3 Zrotation Xrotation Yrotation
        JOINT Spine3
        {
          OFFSET 14.7254 4.19617e-005 0
          CHANNELS 3 Zrotation Xrotation Yrotation
          JOINT Spine4
          {
            OFFSET 10.9679 0 0
            CHANNELS 3 Zrotation Xrotation Yrotation
            JOINT RightShoulder
            {
              OFFSET 2.46616 -1.6653 3.69651
              CHANNELS 3 Zrotation Xrotation Yrotation
              JOINT RightArm
              {
                OFFSET 13.0012 0 0
                CHANNELS 3 Zrotation Xrotation Yrotation
                JOINT RightForeArm
                {
                  OFFSET 28.7848 1.52588e-005 0
                  CHANNELS 3 Zrotation Xrotation Yrotation
                  JOINT RightHand
                  {
                    OFFSET 26.5688 1.52588e-005 0
                    CHANNELS 3 Zrotation Xrotation Yrotation
                    End Site
                    {
                      OFFSET 0 0 0
                    }
                  }
                }
              }
            }
            JOINT LeftShoulder
            {
              OFFSET 2.38034 -1.29275 -3.7523
              CHANNELS 3 Zrotation Xrotation Yrotation
              JOINT LeftArm
              {
                OFFSET 16.3182 6.10352e-005 0
                CHANNELS 3 Zrotation Xrotation Yrotation
                JOINT LeftForeArm
                {
                  OFFSET 27.0901 0 0
                  CHANNELS 3 Zrotation Xrotation Yrotation
                  JOINT LeftHand
                  {
                    OFFSET 24.5451 1.52588e-005 0
                    CHANNELS 3 Zrotation Xrotation Yrotation
                    End Site
                    {
                      OFFSET 0 0 0
                    }
                  }
                }
              }
            }
            JOINT Neck
            {
              OFFSET 5.0226 -0.0266342 0
              CHANNELS 3 Zrotation Xrotation Yrotation
              JOINT Head
              {
                OFFSET 6.69364 2.86102e-005 0
                CHANNELS 3 Zrotation Xrotation Yrotation
                End Site
                {
                  OFFSET 0 0 0
                }
              }
            }
          }
        }
      }
    }
  }
}
MOTION
Frames:	7
Frame Time:	0.0416667
140.289 96.8585 -139.353 107.795 46.4306 79.6942 -175.375 10.576 90.3517 -18.3664 19.9961 1.08401 49.9397 -7.00673 16.3895 31.3414 0.0842944 -3.90727 172.925 -16.1738 87.4422 -26.0001 -14.8488 -0.981075 59.3976 2.29255 9.20695 59.0421 -7.05316 2.41204 0.549196 7.73736 -90.1172 11.401 1.03817 -0.338205 -0.269575 1.02228 -0.383582 -22.808 1.09181 -0.0105242 -2.7954 1.09183 -0.010515 101.9 -51.2974 -82.576 28.9641 -6.66577 -6.10014 0.514558 -4.82924 -26.5371 -14.8775 -0.287681 -3.00994 -78.2577 -53.602 96.2722 -26.268 -6.81585 -5.60946 -1.26088 40.8054 -0.00245748 -13.0576 -0.494511 -0.0518363 -18.0491 0.0264427 -5.00172 -29.1907 -1.05054 4.41181 
141.461 95.064 -141.1 106.88 46.8183 78.8787 -176.298 15.3714 88.4208 -29.2688 15.802 1.15519 54.6392 -2.67914 15.9923 36.9521 -0.694463 -4.84481 172.215 -0.594011 84.7362 -52.0458 -11.3003 -1.36182 47.7721 10.5976 18.4206 50.4082 -4.42255 8.13726 0.558085 7.74071 -89.7833 11.3919 1.21174 0.311255 -0.278503 1.22425 0.257619 -22.8171 1.06216 0.661093 -2.80449 1.06215 0.661081 102.699 -51.1439 -81.3473 32.1613 -1.72675 -4.55094 -0.337918 -10.2772 -18.4756 -11.7978 -0.528331 -0.0313861 -80.165 -52.6036 93.4502 -27.3031 -4.67089 -10.8761 -1.7918 45.7704 -0.245785 -3.89612 -0.0413573 -5.84563 -17.6775 0.0185833 -5.4034 -30.2295 -1.32179 5.37635 
145.235 95.7528 -146.307 108.067 46.7977 77.2417 -174.855 10.4057 88.0783 -30.1391 16.3628 0.289067 59.6384 0.825364 16.7558 36.9264 -0.73887 -3.81976 171.54 11.1988 83.8912 -63.1174 -10.8849 -1.38826 45.5684 10.605 13.4626 46.9846 -4.29547 2.67631 0.323657 7.96691 -89.6259 10.9379 0.817352 0.663229 -0.732958 0.845747 0.626603 -23.2678 0.580249 0.878205 -3.25514 0.580249 0.878202 102.484 -51.2344 -81.6788 33.5191 -0.265096 -3.96801 0.651371 -12.5076 -12.4832 -10.798 -0.508663 0.331314 -80.1869 -52.7278 93.4222 -25.3261 0.401636 -16.8063 -1.21411 39.376 -3.91999 -1.26214 -0.118903 -7.8564 -16.2447 1.13513 -4.27829 -29.7173 -0.719946 8.1158 
148.888 96.7675 -150.72 108.424 50.316 78.2044 -174.997 6.85296 89.2456 -29.5535 18.2598 1.64835 61.8016 2.99794 16.4336 37.4951 -0.844504 -3.26554 170.614 17.3299 86.347 -56.3933 -8.25616 0.715911 49.8011 8.78186 14.9744 43.7575 -3.66326 0.829743 -0.0786281 8.05741 -89.822 10.7593 -0.0742832 0.36128 -0.911745 -0.0583175 0.364197 -23.4465 -0.17945 0.322246 -3.4339 -0.179427 0.322255 102.24 -51.443 -82.0538 33.9422 1.26587 -2.29281 0.502515 -13.9352 -11.0023 -9.72636 -0.478623 0.565728 -80.5667 -50.8154 92.7692 -26.5112 2.69803 -24.2049 4.27661 38.1503 -11.6604 1.23236 -0.209503 -8.18927 -17.1064 1.14923 -3.77532 -29.9439 -0.716152 7.95508 
152.585 97.4568 -154.74 107.53 53.5083 78.5999 -174.77 3.39404 89.7683 -27.0681 19.8915 2.08732 62.9717 4.4532 15.8993 39.2222 -1.0834 -3.39309 171.561 17.9687 87.3137 -34.7738 -7.43377 2.49787 53.8522 6.96534 15.2772 43.8523 -3.76927 -0.908421 -0.375528 8.03063 -89.8496 10.8137 -0.678282 0.362345 -0.857087 -0.661655 0.39184 -23.3936 -0.75582 0.141736 -3.38092 -0.755825 0.141728 102.744 -51.6341 -81.2839 34.4351 2.02446 -1.19346 0.510638 -14.147 -10.6841 -10.1347 -0.472927 0.258002 -80.6193 -49.1123 92.6038 -25.3762 5.738 -28.9164 7.07814 31.9169 -18.9585 4.05815 -0.336125 -8.73951 -16.6644 0.977735 -4.33624 -30.9466 -0.804854 7.33467 
156.598 98.106 -158.914 107.639 55.7508 76.7729 -174.565 -2.28043 89.1344 -21.9546 23.1291 2.09697 61.3313 4.69293 16.4179 44.3975 -1.77288 -1.0895 175.746 14.9126 86.3221 -15.7642 -1.5396 0.24249 54.4523 8.38078 20.9356 37.5547 -2.16848 -1.06346 -0.468557 7.9598 -89.8033 10.956 -0.841558 0.471156 -0.714796 -0.820033 0.507741 -23.2519 -0.944262 0.196432 -3.23931 -0.944254 0.196434 102.668 -51.3383 -81.3963 35.2588 2.99739 0.0348444 0.29038 -12.1568 -11.8751 -9.34719 -0.476002 0.779593 -80.7303 -48.7935 92.415 -23.5682 7.84412 -30.9308 9.84849 30.5057 -24.7429 4.24066 -0.373816 -9.27582 -17.7922 0.488601 -3.68292 -30.3067 -1.07416 6.41993 
160.839 97.4649 -163.353 109.481 56.7018 73.829 -175.847 -5.52462 87.9499 -25.1666 23.3797 3.36708 62.1789 6.19956 16.8874 49.4589 -2.12818 2.37511 175.376 13.3351 85.63 -15.8523 -8.70898 0.36589 50.5422 9.38223 13.4071 31.6952 -0.634501 -0.929603 -0.424444 7.86013 -89.8866 11.1542 -0.792154 0.302826 -0.516565 -0.778055 0.337405 -23.0536 -0.846539 0.0507346 -3.04093 -0.84654 0.0507402 102.654 -51.5649 -81.4205 34.2848 2.66262 -0.59911 0.458403 -12.8259 -11.319 -9.51737 -0.507226 1.05225 -79.9898 -50.1352 93.6152 -22.9241 8.7347 -29.558 10.8617 31.3789 -26.4532 3.43035 -0.282173 -8.10736 -18.887 0.249198 -3.14967 -30.5055 -1.50723 7.05532 
